<mxfile host="app.diagrams.net" modified="2024-03-07T07:41:22.674Z" agent="Mozilla/5.0 (Windows NT 10.0; Win64; x64) AppleWebKit/537.36 (KHTML, like Gecko) Chrome/122.0.0.0 Safari/537.36" etag="JL_TC5mpS3_PR9-51YSg" version="24.0.2" type="device">
  <diagram name="페이지-1" id="rZJwx5I_1V7BpxDiC8G8">
    <mxGraphModel dx="393" dy="648" grid="1" gridSize="10" guides="1" tooltips="1" connect="1" arrows="1" fold="1" page="1" pageScale="1" pageWidth="827" pageHeight="1169" math="0" shadow="0">
      <root>
        <mxCell id="0" />
        <mxCell id="1" parent="0" />
        <mxCell id="7G_S3xFNVxhOCm470cId-1" value="학점 산출 프로그램 시나리오&amp;nbsp;&lt;div style=&quot;font-size: 8px;&quot;&gt;Good School 학교가 있다.&amp;nbsp;&amp;nbsp;&lt;span style=&quot;background-color: initial;&quot;&gt;학교에는 5명의 학생들이 수업을 듣는다.&amp;nbsp;&lt;/span&gt;&lt;span style=&quot;background-color: initial;&quot;&gt;과목은 국어, 수학이 있고 각 학생은 두 과목을 모두 수강한다. 컴퓨터공학과 학생은 수학이 국어국문학과 학생은 국어가 필수 과목이다.&lt;/span&gt;&lt;/div&gt;&lt;div style=&quot;font-size: 8px;&quot;&gt;&lt;span style=&quot;background-color: initial;&quot;&gt;이번학기 과목별 성적은 다음과 같다.&amp;nbsp;&lt;/span&gt;&lt;/div&gt;&lt;div style=&quot;font-size: 8px;&quot;&gt;&lt;div&gt;&lt;br&gt;&lt;/div&gt;&lt;/div&gt;" style="rounded=0;whiteSpace=wrap;html=1;align=left;" vertex="1" parent="1">
          <mxGeometry x="10" y="10" width="790" height="60" as="geometry" />
        </mxCell>
        <mxCell id="7G_S3xFNVxhOCm470cId-24" style="edgeStyle=orthogonalEdgeStyle;rounded=0;orthogonalLoop=1;jettySize=auto;html=1;exitX=0.5;exitY=1;exitDx=0;exitDy=0;" edge="1" parent="1" source="7G_S3xFNVxhOCm470cId-2">
          <mxGeometry relative="1" as="geometry">
            <mxPoint x="414.1428571428571" y="280.28571428571433" as="targetPoint" />
          </mxGeometry>
        </mxCell>
        <mxCell id="7G_S3xFNVxhOCm470cId-26" style="edgeStyle=orthogonalEdgeStyle;rounded=0;orthogonalLoop=1;jettySize=auto;html=1;exitX=0.75;exitY=1;exitDx=0;exitDy=0;entryX=0.25;entryY=0;entryDx=0;entryDy=0;" edge="1" parent="1" source="7G_S3xFNVxhOCm470cId-2" target="7G_S3xFNVxhOCm470cId-4">
          <mxGeometry relative="1" as="geometry" />
        </mxCell>
        <mxCell id="7G_S3xFNVxhOCm470cId-27" style="edgeStyle=orthogonalEdgeStyle;rounded=0;orthogonalLoop=1;jettySize=auto;html=1;exitX=0.25;exitY=1;exitDx=0;exitDy=0;entryX=0.5;entryY=0;entryDx=0;entryDy=0;" edge="1" parent="1" source="7G_S3xFNVxhOCm470cId-2" target="7G_S3xFNVxhOCm470cId-3">
          <mxGeometry relative="1" as="geometry" />
        </mxCell>
        <mxCell id="7G_S3xFNVxhOCm470cId-56" style="edgeStyle=orthogonalEdgeStyle;rounded=0;orthogonalLoop=1;jettySize=auto;html=1;exitX=0;exitY=0.5;exitDx=0;exitDy=0;entryX=1;entryY=0.5;entryDx=0;entryDy=0;" edge="1" parent="1" source="7G_S3xFNVxhOCm470cId-2" target="7G_S3xFNVxhOCm470cId-53">
          <mxGeometry relative="1" as="geometry" />
        </mxCell>
        <mxCell id="7G_S3xFNVxhOCm470cId-60" style="edgeStyle=orthogonalEdgeStyle;rounded=0;orthogonalLoop=1;jettySize=auto;html=1;exitX=1;exitY=0.5;exitDx=0;exitDy=0;entryX=0;entryY=0.5;entryDx=0;entryDy=0;" edge="1" parent="1" source="7G_S3xFNVxhOCm470cId-2" target="7G_S3xFNVxhOCm470cId-59">
          <mxGeometry relative="1" as="geometry" />
        </mxCell>
        <mxCell id="7G_S3xFNVxhOCm470cId-2" value="학생&lt;div&gt;(Student)&lt;/div&gt;" style="rounded=0;whiteSpace=wrap;html=1;" vertex="1" parent="1">
          <mxGeometry x="354" y="227.5" width="120" height="60" as="geometry" />
        </mxCell>
        <mxCell id="7G_S3xFNVxhOCm470cId-3" value="과목&lt;div&gt;(Subject)&lt;/div&gt;" style="rounded=0;whiteSpace=wrap;html=1;" vertex="1" parent="1">
          <mxGeometry x="251" y="350" width="120" height="60" as="geometry" />
        </mxCell>
        <mxCell id="7G_S3xFNVxhOCm470cId-4" value="점수&lt;div&gt;(Score)&lt;/div&gt;" style="rounded=0;whiteSpace=wrap;html=1;" vertex="1" parent="1">
          <mxGeometry x="520" y="350" width="120" height="60" as="geometry" />
        </mxCell>
        <mxCell id="7G_S3xFNVxhOCm470cId-5" value="이름&lt;div&gt;(name)&lt;/div&gt;" style="ellipse;whiteSpace=wrap;html=1;" vertex="1" parent="1">
          <mxGeometry x="344" y="160" width="60" height="40" as="geometry" />
        </mxCell>
        <mxCell id="7G_S3xFNVxhOCm470cId-6" value="학번&lt;div&gt;(no)&lt;/div&gt;" style="ellipse;whiteSpace=wrap;html=1;" vertex="1" parent="1">
          <mxGeometry x="264" y="160" width="60" height="40" as="geometry" />
        </mxCell>
        <mxCell id="7G_S3xFNVxhOCm470cId-7" value="필수과목&lt;div&gt;(essense)&lt;/div&gt;" style="ellipse;whiteSpace=wrap;html=1;" vertex="1" parent="1">
          <mxGeometry x="424" y="160" width="60" height="40" as="geometry" />
        </mxCell>
        <mxCell id="7G_S3xFNVxhOCm470cId-8" value="필수과목&lt;div&gt;(subject)&lt;/div&gt;" style="ellipse;whiteSpace=wrap;html=1;" vertex="1" parent="1">
          <mxGeometry x="504" y="160" width="60" height="40" as="geometry" />
        </mxCell>
        <mxCell id="7G_S3xFNVxhOCm470cId-9" value="&lt;div&gt;과목코드(code)&lt;/div&gt;" style="ellipse;whiteSpace=wrap;html=1;" vertex="1" parent="1">
          <mxGeometry x="157" y="300" width="60" height="40" as="geometry" />
        </mxCell>
        <mxCell id="7G_S3xFNVxhOCm470cId-10" value="평가방법&lt;div&gt;(style)&lt;/div&gt;" style="ellipse;whiteSpace=wrap;html=1;" vertex="1" parent="1">
          <mxGeometry x="157" y="360" width="60" height="40" as="geometry" />
        </mxCell>
        <mxCell id="7G_S3xFNVxhOCm470cId-11" value="&lt;div&gt;과목명(name)&lt;/div&gt;" style="ellipse;whiteSpace=wrap;html=1;" vertex="1" parent="1">
          <mxGeometry x="157" y="420" width="60" height="40" as="geometry" />
        </mxCell>
        <mxCell id="7G_S3xFNVxhOCm470cId-12" value="과&lt;span style=&quot;color: rgba(0, 0, 0, 0); font-family: monospace; font-size: 0px; text-align: start; text-wrap: nowrap;&quot;&gt;%3CmxGraphModel%3E%3Croot%3E%3CmxCell%20id%3D%220%22%2F%3E%3CmxCell%20id%3D%221%22%20parent%3D%220%22%2F%3E%3CmxCell%20id%3D%222%22%20value%3D%22%26lt%3Bdiv%26gt%3B%EA%B3%BC%EB%AA%A9%EC%BD%94%EB%93%9C(code)%26lt%3B%2Fdiv%26gt%3B%22%20style%3D%22ellipse%3BwhiteSpace%3Dwrap%3Bhtml%3D1%3B%22%20vertex%3D%221%22%20parent%3D%221%22%3E%3CmxGeometry%20x%3D%22650%22%20y%3D%22280%22%20width%3D%2260%22%20height%3D%2240%22%20as%3D%22geometry%22%2F%3E%3C%2FmxCell%3E%3C%2Froot%3E%3C%2FmxGraphModel%3E&lt;/span&gt;목&lt;div&gt;(subject)&lt;/div&gt;" style="ellipse;whiteSpace=wrap;html=1;" vertex="1" parent="1">
          <mxGeometry x="676" y="360" width="60" height="40" as="geometry" />
        </mxCell>
        <mxCell id="7G_S3xFNVxhOCm470cId-13" value="&lt;div&gt;학번&lt;/div&gt;&lt;div&gt;(no)&lt;/div&gt;" style="ellipse;whiteSpace=wrap;html=1;" vertex="1" parent="1">
          <mxGeometry x="676" y="300" width="60" height="40" as="geometry" />
        </mxCell>
        <mxCell id="7G_S3xFNVxhOCm470cId-15" value="&lt;div&gt;점수&lt;span style=&quot;color: rgba(0, 0, 0, 0); font-family: monospace; font-size: 0px; text-align: start; text-wrap: nowrap; background-color: initial;&quot;&gt;%3CmxGraphModel%3E%3Croot%3E%3CmxCell%20id%3D%220%22%2F%3E%3CmxCell%20id%3D%221%22%20parent%3D%220%22%2F%3E%3CmxCell%20id%3D%222%22%20value%3D%22%EA%B3%BC%26lt%3Bspan%20style%3D%26quot%3Bcolor%3A%20rgba(0%2C%200%2C%200%2C%200)%3B%20font-family%3A%20monospace%3B%20font-size%3A%200px%3B%20text-align%3A%20start%3B%20text-wrap%3A%20nowrap%3B%26quot%3B%26gt%3B%253CmxGraphModel%253E%253Croot%253E%253CmxCell%2520id%253D%25220%2522%252F%253E%253CmxCell%2520id%253D%25221%2522%2520parent%253D%25220%2522%252F%253E%253CmxCell%2520id%253D%25222%2522%2520value%253D%2522%2526lt%253Bdiv%2526gt%253B%25EA%25B3%25BC%25EB%25AA%25A9%25EC%25BD%2594%25EB%2593%259C(code)%2526lt%253B%252Fdiv%2526gt%253B%2522%2520style%253D%2522ellipse%253BwhiteSpace%253Dwrap%253Bhtml%253D1%253B%2522%2520vertex%253D%25221%2522%2520parent%253D%25221%2522%253E%253CmxGeometry%2520x%253D%2522650%2522%2520y%253D%2522280%2522%2520width%253D%252260%2522%2520height%253D%252240%2522%2520as%253D%2522geometry%2522%252F%253E%253C%252FmxCell%253E%253C%252Froot%253E%253C%252FmxGraphModel%253E%26lt%3B%2Fspan%26gt%3B%EB%AA%A9%26lt%3Bdiv%26gt%3B(subject)%26lt%3B%2Fdiv%26gt%3B%22%20style%3D%22ellipse%3BwhiteSpace%3Dwrap%3Bhtml%3D1%3B%22%20vertex%3D%221%22%20parent%3D%221%22%3E%3CmxGeometry%20x%3D%22640%22%20y%3D%22340%22%20width%3D%2260%22%20height%3D%2240%22%20as%3D%22geometry%22%2F%3E%3C%2FmxCell%3E%3C%2Froot%3E%3C%2FmxGraphModel%3E&lt;/span&gt;&lt;span style=&quot;background-color: initial; color: rgba(0, 0, 0, 0); font-family: monospace; font-size: 0px; text-align: start; text-wrap: nowrap;&quot;&gt;%3CmxGraphModel%3E%3Croot%3E%3CmxCell%20id%3D%220%22%2F%3E%3CmxCell%20id%3D%221%22%20parent%3D%220%22%2F%3E%3CmxCell%20id%3D%222%22%20value%3D%22%EA%B3%BC%26lt%3Bspan%20style%3D%26quot%3Bcolor%3A%20rgba(0%2C%200%2C%200%2C%200)%3B%20font-family%3A%20monospace%3B%20font-size%3A%200px%3B%20text-align%3A%20start%3B%20text-wrap%3A%20nowrap%3B%26quot%3B%26gt%3B%253CmxGraphModel%253E%253Croot%253E%253CmxCell%2520id%253D%25220%2522%252F%253E%253CmxCell%2520id%253D%25221%2522%2520parent%253D%25220%2522%252F%253E%253CmxCell%2520id%253D%25222%2522%2520value%253D%2522%2526lt%253Bdiv%2526gt%253B%25EA%25B3%25BC%25EB%25AA%25A9%25EC%25BD%2594%25EB%2593%259C(code)%2526lt%253B%252Fdiv%2526gt%253B%2522%2520style%253D%2522ellipse%253BwhiteSpace%253Dwrap%253Bhtml%253D1%253B%2522%2520vertex%253D%25221%2522%2520parent%253D%25221%2522%253E%253CmxGeometry%2520x%253D%2522650%2522%2520y%253D%2522280%2522%2520width%253D%252260%2522%2520height%253D%252240%2522%2520as%253D%2522geometry%2522%252F%253E%253C%252FmxCell%253E%253C%252Froot%253E%253C%252FmxGraphModel%253E%26lt%3B%2Fspan%26gt%3B%EB%AA%A9%26lt%3Bdiv%26gt%3B(subject)%26lt%3B%2Fdiv%26gt%3B%22%20style%3D%22ellipse%3BwhiteSpace%3Dwrap%3Bhtml%3D1%3B%22%20vertex%3D%221%22%20parent%3D%221%22%3E%3CmxGeometry%20x%3D%22640%22%20y%3D%22340%22%20width%3D%2260%22%20height%3D%2240%22%20as%3D%22geometry%22%2F%3E%3C%2FmxCell%3E%3C%2Froot%3E%3C%2FmxGraphModel%3E&lt;/span&gt;&lt;/div&gt;&lt;div&gt;(point)&lt;/div&gt;" style="ellipse;whiteSpace=wrap;html=1;" vertex="1" parent="1">
          <mxGeometry x="676" y="420" width="60" height="40" as="geometry" />
        </mxCell>
        <mxCell id="7G_S3xFNVxhOCm470cId-23" value="n" style="text;html=1;align=center;verticalAlign=middle;whiteSpace=wrap;rounded=0;" vertex="1" parent="1">
          <mxGeometry x="544" y="320" width="26" height="25" as="geometry" />
        </mxCell>
        <mxCell id="7G_S3xFNVxhOCm470cId-28" value="1" style="text;html=1;align=center;verticalAlign=middle;whiteSpace=wrap;rounded=0;" vertex="1" parent="1">
          <mxGeometry x="448" y="290" width="26" height="25" as="geometry" />
        </mxCell>
        <mxCell id="7G_S3xFNVxhOCm470cId-29" value="n" style="text;html=1;align=center;verticalAlign=middle;whiteSpace=wrap;rounded=0;" vertex="1" parent="1">
          <mxGeometry x="361" y="295" width="26" height="25" as="geometry" />
        </mxCell>
        <mxCell id="7G_S3xFNVxhOCm470cId-31" value="1" style="text;html=1;align=center;verticalAlign=middle;whiteSpace=wrap;rounded=0;" vertex="1" parent="1">
          <mxGeometry x="310" y="315" width="26" height="25" as="geometry" />
        </mxCell>
        <mxCell id="7G_S3xFNVxhOCm470cId-35" value="" style="endArrow=none;html=1;rounded=0;entryX=0;entryY=0.5;entryDx=0;entryDy=0;exitX=1;exitY=0.5;exitDx=0;exitDy=0;" edge="1" parent="1" source="7G_S3xFNVxhOCm470cId-3" target="7G_S3xFNVxhOCm470cId-4">
          <mxGeometry width="50" height="50" relative="1" as="geometry">
            <mxPoint x="390" y="390" as="sourcePoint" />
            <mxPoint x="440" y="340" as="targetPoint" />
          </mxGeometry>
        </mxCell>
        <mxCell id="7G_S3xFNVxhOCm470cId-36" value="1" style="text;html=1;align=center;verticalAlign=middle;whiteSpace=wrap;rounded=0;" vertex="1" parent="1">
          <mxGeometry x="378" y="380" width="26" height="25" as="geometry" />
        </mxCell>
        <mxCell id="7G_S3xFNVxhOCm470cId-37" value="1" style="text;html=1;align=center;verticalAlign=middle;whiteSpace=wrap;rounded=0;" vertex="1" parent="1">
          <mxGeometry x="448" y="380" width="26" height="25" as="geometry" />
        </mxCell>
        <mxCell id="7G_S3xFNVxhOCm470cId-43" value="" style="endArrow=none;html=1;rounded=0;entryX=1;entryY=1;entryDx=0;entryDy=0;exitX=0;exitY=0;exitDx=0;exitDy=0;" edge="1" parent="1" source="7G_S3xFNVxhOCm470cId-2" target="7G_S3xFNVxhOCm470cId-6">
          <mxGeometry width="50" height="50" relative="1" as="geometry">
            <mxPoint x="390" y="390" as="sourcePoint" />
            <mxPoint x="440" y="340" as="targetPoint" />
          </mxGeometry>
        </mxCell>
        <mxCell id="7G_S3xFNVxhOCm470cId-44" value="" style="endArrow=none;html=1;rounded=0;entryX=0.5;entryY=1;entryDx=0;entryDy=0;exitX=0.25;exitY=0;exitDx=0;exitDy=0;" edge="1" parent="1" source="7G_S3xFNVxhOCm470cId-2" target="7G_S3xFNVxhOCm470cId-5">
          <mxGeometry width="50" height="50" relative="1" as="geometry">
            <mxPoint x="364" y="238" as="sourcePoint" />
            <mxPoint x="304" y="210" as="targetPoint" />
          </mxGeometry>
        </mxCell>
        <mxCell id="7G_S3xFNVxhOCm470cId-45" value="" style="endArrow=none;html=1;rounded=0;entryX=0.5;entryY=1;entryDx=0;entryDy=0;exitX=0.75;exitY=0;exitDx=0;exitDy=0;" edge="1" parent="1" source="7G_S3xFNVxhOCm470cId-2" target="7G_S3xFNVxhOCm470cId-7">
          <mxGeometry width="50" height="50" relative="1" as="geometry">
            <mxPoint x="374" y="248" as="sourcePoint" />
            <mxPoint x="314" y="220" as="targetPoint" />
          </mxGeometry>
        </mxCell>
        <mxCell id="7G_S3xFNVxhOCm470cId-46" value="" style="endArrow=none;html=1;rounded=0;entryX=0;entryY=1;entryDx=0;entryDy=0;exitX=1;exitY=0;exitDx=0;exitDy=0;" edge="1" parent="1" source="7G_S3xFNVxhOCm470cId-2" target="7G_S3xFNVxhOCm470cId-8">
          <mxGeometry width="50" height="50" relative="1" as="geometry">
            <mxPoint x="384" y="258" as="sourcePoint" />
            <mxPoint x="324" y="230" as="targetPoint" />
          </mxGeometry>
        </mxCell>
        <mxCell id="7G_S3xFNVxhOCm470cId-47" value="" style="endArrow=none;html=1;rounded=0;entryX=1;entryY=1;entryDx=0;entryDy=0;exitX=0;exitY=0;exitDx=0;exitDy=0;" edge="1" parent="1" source="7G_S3xFNVxhOCm470cId-3" target="7G_S3xFNVxhOCm470cId-9">
          <mxGeometry width="50" height="50" relative="1" as="geometry">
            <mxPoint x="411" y="268" as="sourcePoint" />
            <mxPoint x="351" y="240" as="targetPoint" />
          </mxGeometry>
        </mxCell>
        <mxCell id="7G_S3xFNVxhOCm470cId-48" value="" style="endArrow=none;html=1;rounded=0;entryX=0;entryY=0.5;entryDx=0;entryDy=0;exitX=1;exitY=0.5;exitDx=0;exitDy=0;" edge="1" parent="1" source="7G_S3xFNVxhOCm470cId-10" target="7G_S3xFNVxhOCm470cId-3">
          <mxGeometry width="50" height="50" relative="1" as="geometry">
            <mxPoint x="421" y="278" as="sourcePoint" />
            <mxPoint x="361" y="250" as="targetPoint" />
          </mxGeometry>
        </mxCell>
        <mxCell id="7G_S3xFNVxhOCm470cId-49" value="" style="endArrow=none;html=1;rounded=0;entryX=1;entryY=0.5;entryDx=0;entryDy=0;exitX=0;exitY=0.75;exitDx=0;exitDy=0;" edge="1" parent="1" source="7G_S3xFNVxhOCm470cId-3" target="7G_S3xFNVxhOCm470cId-11">
          <mxGeometry width="50" height="50" relative="1" as="geometry">
            <mxPoint x="431" y="288" as="sourcePoint" />
            <mxPoint x="371" y="260" as="targetPoint" />
          </mxGeometry>
        </mxCell>
        <mxCell id="7G_S3xFNVxhOCm470cId-50" value="" style="endArrow=none;html=1;rounded=0;entryX=0;entryY=0.5;entryDx=0;entryDy=0;exitX=1;exitY=1;exitDx=0;exitDy=0;" edge="1" parent="1" source="7G_S3xFNVxhOCm470cId-4" target="7G_S3xFNVxhOCm470cId-15">
          <mxGeometry width="50" height="50" relative="1" as="geometry">
            <mxPoint x="280" y="405" as="sourcePoint" />
            <mxPoint x="246" y="430" as="targetPoint" />
          </mxGeometry>
        </mxCell>
        <mxCell id="7G_S3xFNVxhOCm470cId-51" value="" style="endArrow=none;html=1;rounded=0;entryX=0;entryY=0.5;entryDx=0;entryDy=0;exitX=1;exitY=0.5;exitDx=0;exitDy=0;" edge="1" parent="1" source="7G_S3xFNVxhOCm470cId-4" target="7G_S3xFNVxhOCm470cId-12">
          <mxGeometry width="50" height="50" relative="1" as="geometry">
            <mxPoint x="650" y="420" as="sourcePoint" />
            <mxPoint x="686" y="430" as="targetPoint" />
          </mxGeometry>
        </mxCell>
        <mxCell id="7G_S3xFNVxhOCm470cId-52" value="" style="endArrow=none;html=1;rounded=0;entryX=0;entryY=1;entryDx=0;entryDy=0;exitX=1;exitY=0;exitDx=0;exitDy=0;" edge="1" parent="1" source="7G_S3xFNVxhOCm470cId-4" target="7G_S3xFNVxhOCm470cId-13">
          <mxGeometry width="50" height="50" relative="1" as="geometry">
            <mxPoint x="660" y="430" as="sourcePoint" />
            <mxPoint x="696" y="440" as="targetPoint" />
          </mxGeometry>
        </mxCell>
        <mxCell id="7G_S3xFNVxhOCm470cId-53" value="수강" style="rhombus;whiteSpace=wrap;html=1;" vertex="1" parent="1">
          <mxGeometry x="241" y="237.5" width="80" height="40" as="geometry" />
        </mxCell>
        <mxCell id="7G_S3xFNVxhOCm470cId-61" style="edgeStyle=orthogonalEdgeStyle;rounded=0;orthogonalLoop=1;jettySize=auto;html=1;exitX=0.5;exitY=1;exitDx=0;exitDy=0;entryX=0.75;entryY=0;entryDx=0;entryDy=0;" edge="1" parent="1" source="7G_S3xFNVxhOCm470cId-59" target="7G_S3xFNVxhOCm470cId-4">
          <mxGeometry relative="1" as="geometry" />
        </mxCell>
        <mxCell id="7G_S3xFNVxhOCm470cId-59" value="수강" style="rhombus;whiteSpace=wrap;html=1;" vertex="1" parent="1">
          <mxGeometry x="570" y="237.5" width="80" height="40" as="geometry" />
        </mxCell>
        <mxCell id="7G_S3xFNVxhOCm470cId-63" value="&lt;div&gt;&lt;br&gt;&lt;/div&gt;&lt;div&gt;Entity&lt;/div&gt;&lt;div&gt;&lt;br&gt;&lt;/div&gt;" style="rounded=0;whiteSpace=wrap;html=1;" vertex="1" parent="1">
          <mxGeometry x="20" y="160" width="120" height="60" as="geometry" />
        </mxCell>
        <mxCell id="7G_S3xFNVxhOCm470cId-64" value="Attribute" style="ellipse;whiteSpace=wrap;html=1;" vertex="1" parent="1">
          <mxGeometry x="20" y="235" width="120" height="80" as="geometry" />
        </mxCell>
        <mxCell id="7G_S3xFNVxhOCm470cId-65" value="Relation" style="rhombus;whiteSpace=wrap;html=1;" vertex="1" parent="1">
          <mxGeometry x="20" y="325" width="120" height="80" as="geometry" />
        </mxCell>
        <mxCell id="7G_S3xFNVxhOCm470cId-66" value="Text" style="text;html=1;align=center;verticalAlign=middle;whiteSpace=wrap;rounded=0;" vertex="1" parent="1">
          <mxGeometry x="310" y="280" width="60" height="30" as="geometry" />
        </mxCell>
        <mxCell id="7G_S3xFNVxhOCm470cId-67" value="&lt;font style=&quot;font-size: 15px;&quot;&gt;정보 공학적 ERD(Entity Relationship Diagram)&lt;/font&gt;" style="text;html=1;align=center;verticalAlign=middle;whiteSpace=wrap;rounded=0;" vertex="1" parent="1">
          <mxGeometry x="251" y="480" width="360.5" height="30" as="geometry" />
        </mxCell>
        <mxCell id="7G_S3xFNVxhOCm470cId-69" value="" style="endArrow=none;html=1;rounded=0;" edge="1" parent="1">
          <mxGeometry width="50" height="50" relative="1" as="geometry">
            <mxPoint x="120" y="440" as="sourcePoint" />
            <mxPoint x="40" y="440" as="targetPoint" />
          </mxGeometry>
        </mxCell>
        <mxCell id="7G_S3xFNVxhOCm470cId-70" value="Link" style="text;html=1;align=center;verticalAlign=middle;whiteSpace=wrap;rounded=0;" vertex="1" parent="1">
          <mxGeometry x="50" y="450" width="60" height="30" as="geometry" />
        </mxCell>
        <mxCell id="7G_S3xFNVxhOCm470cId-71" value="" style="endArrow=classic;html=1;rounded=0;" edge="1" parent="1">
          <mxGeometry width="50" height="50" relative="1" as="geometry">
            <mxPoint x="40" y="420" as="sourcePoint" />
            <mxPoint x="120" y="420" as="targetPoint" />
          </mxGeometry>
        </mxCell>
        <mxCell id="7G_S3xFNVxhOCm470cId-72" value="" style="endArrow=classic;html=1;rounded=0;entryX=0.25;entryY=0;entryDx=0;entryDy=0;exitX=0.5;exitY=1;exitDx=0;exitDy=0;" edge="1" parent="1" source="7G_S3xFNVxhOCm470cId-53" target="7G_S3xFNVxhOCm470cId-3">
          <mxGeometry width="50" height="50" relative="1" as="geometry">
            <mxPoint x="320" y="310" as="sourcePoint" />
            <mxPoint x="370" y="260" as="targetPoint" />
          </mxGeometry>
        </mxCell>
      </root>
    </mxGraphModel>
  </diagram>
</mxfile>
